<svg xmlns="http://www.w3.org/2000/svg" width="82" height="82" fill="none">
    <path fill="#F5F5F5" d="M22.887 6.57c.002-1.323 1.84-2.168 2.326-2.369.486.201 2.323 1.046 2.325 2.368 0 1.084-.858 1.404-1.037 1.46h-2.58c-.18-.056-1.039-.378-1.036-1.46zM26.202 8.73h-1.977v2.13h1.977zM22.889 11.56h4.651v1.927h-4.651zM53.516 6.57c.002-1.323 1.84-2.168 2.326-2.369.486.201 2.323 1.046 2.325 2.368 0 1.084-.858 1.404-1.037 1.46h-2.58a1.47 1.47 0 0 1-1.036-1.46zM56.829 8.73h-1.977v2.13h1.977zM53.518 11.56h4.651v1.927h-4.651zM26.602 15.737H23.82V20.7h2.782zM28.705 24.378h-6.986v-2.98h6.986zM57.23 15.737h-2.78V20.7h2.78zM59.335 24.378H52.35v-2.98h6.985zM51.65 39.363h-.375v-2.541c0-.712-.953-1.175-1.144-1.261a.35.35 0 0 0-.284 0c-.19.086-1.144.549-1.144 1.261v2.541h-.582v-2.541c0-.712-.953-1.175-1.144-1.261a.35.35 0 0 0-.283 0c-.191.086-1.145.549-1.145 1.261v2.541h-.58v-2.541c0-.712-.954-1.175-1.145-1.261a.35.35 0 0 0-.284 0c-.19.086-1.144.549-1.144 1.261v2.541h-.581v-2.541c0-.712-.954-1.175-1.144-1.261a.35.35 0 0 0-.284 0c-.19.086-1.144.549-1.144 1.261v2.541h-.582v-2.541c0-.712-.953-1.175-1.144-1.261a.35.35 0 0 0-.284 0c-.19.086-1.144.549-1.144 1.261v2.541h-.581v-2.541c0-.712-.954-1.175-1.144-1.261a.35.35 0 0 0-.284 0c-.19.086-1.144.549-1.144 1.261v2.541h-.581v-2.541c0-.712-.954-1.175-1.144-1.261a.35.35 0 0 0-.284 0c-.19.086-1.144.549-1.144 1.261v2.541h-.375v-6.112h22.248v6.112zM59.375 36.616h-6.986v2.705h6.985zM53.775 27.676v-1.079h4.135v5.956h-4.135zM53.465 33.21h5.909000000000001v2.706H52.39V33.21zM27.977 28.025h25.099v4.527H27.977zM23.147 26.597h4.134v5.956h-4.134zM28.705 36.658h-6.986v2.705h6.986zM28.705 35.958h-6.986v-2.705h6.986000000000001zM32.58 41.582v16.717h.912V49.94c0-2.79 2.435-3.687 4.393-4.41 1.23-.452 2.293-.845 2.293-1.536a.35.35 0 1 1 .697 0c0 .691 1.063 1.084 2.293 1.537 1.958.722 4.393 1.618 4.393 4.41v8.358h.912V41.582H32.58m2.307 3.113a.701.701 0 0 1 0-1.401.701.701 0 0 1 0 1.4m11.279 0a.701.701 0 0 1 0-1.401.701.701 0 0 1 0 1.4M24.327 41.582h-1.356v16.717h1.356zM28.708 41.582h-1.356v16.717h1.356zM53.745 41.54h-1.356v16.717h1.356zM58.083 41.582h-1.356v16.717h1.356z" class="hyderabad_svg__dynamic-shade-fill">
    </path>
    <path fill="#3C3C3C" d="M15.744 42.145c0 .207.17.378.377.378a.379.379 0 0 0 0-.757.38.38 0 0 0-.377.379M38.31 17.475a.35.35 0 0 0 .35-.35v-.07h.07a.35.35 0 0 0 .348-.35.35.35 0 0 0-.349-.351h-.07v-.07a.35.35 0 1 0-.697 0v.07h-.07a.35.35 0 0 0-.349.35c0 .194.156.35.349.35h.07v.07c0 .195.156.351.349.351M64.878 53.724q.09-.314.09-.647a2.35 2.35 0 0 0-2.341-2.352 2.35 2.35 0 0 0-2.338 2.473 2.05 2.05 0 0 0 1.303 3.62h.758v1.532a.35.35 0 1 0 .698 0v-1.532h1.186a1.615 1.615 0 0 0 .644-3.094m-.642 2.394h-2.642c-.74 0-1.34-.603-1.34-1.346 0-.45.224-.868.598-1.118a.35.35 0 0 0 .152-.341 1.649 1.649 0 0 1 1.625-1.885 1.65 1.65 0 0 1 1.477 2.373.35.35 0 0 0 .263.5.915.915 0 0 1-.133 1.82zM34.888 45.398a1.4 1.4 0 0 0 1.395-1.402 1.4 1.4 0 0 0-1.395-1.4 1.4 1.4 0 0 0-1.396 1.4 1.4 1.4 0 0 0 1.396 1.402m0-2.102a.701.701 0 0 1 0 1.401.701.701 0 0 1 0-1.401M46.165 45.398a1.4 1.4 0 0 0 1.395-1.402 1.4 1.4 0 0 0-1.395-1.4 1.4 1.4 0 0 0-1.395 1.4 1.4 1.4 0 0 0 1.395 1.402m0-2.102a.701.701 0 0 1 0 1.401.701.701 0 0 1 0-1.401M30.136 45.22h1.014a.35.35 0 0 0 .35-.35l-.005-1.542a.854.854 0 0 0-.852-.854.853.853 0 0 0-.851.852l-.005 1.544a.35.35 0 0 0 .35.35m.354-1.894a.154.154 0 1 1 .307 0l.004 1.191h-.314l.005-1.193zM30.136 49.113h1.014a.35.35 0 0 0 .35-.35l-.005-1.541a.854.854 0 0 0-.852-.855.853.853 0 0 0-.851.852l-.005 1.544a.35.35 0 0 0 .35.35m.354-1.894a.154.154 0 1 1 .307 0l.004 1.191h-.314l.005-1.193zM30.136 53.007h1.014a.35.35 0 0 0 .35-.35l-.005-1.542a.854.854 0 0 0-.852-.855.853.853 0 0 0-.851.853l-.005 1.544a.35.35 0 0 0 .35.35m.354-1.894a.154.154 0 1 1 .307 0l.004 1.19h-.314l.005-1.193zM30.136 56.898h1.014a.35.35 0 0 0 .35-.35l-.005-1.542a.854.854 0 0 0-.852-.855.853.853 0 0 0-.851.853l-.005 1.544a.35.35 0 0 0 .35.35m.354-1.894a.154.154 0 1 1 .307 0l.004 1.19h-.314l.005-1.193zM30.13 40.063h30.515a.35.35 0 0 0 .349-.35.35.35 0 0 0-.35-.35h-.608v-2.705h.609a.35.35 0 0 0 .349-.35.35.35 0 0 0-.35-.35h-.608v-2.705h.609a.35.35 0 0 0 .349-.35.35.35 0 0 0-.35-.35h-2.036v-6.307a.35.35 0 0 0-.35-.35h-4.83a.35.35 0 0 0-.348.35v1.08H27.978v-1.08a.35.35 0 0 0-.348-.35H22.8a.35.35 0 0 0-.35.35v6.306h-2.037a.35.35 0 0 0-.348.35c0 .194.155.35.348.35h.61v2.705h-.61a.35.35 0 0 0-.348.35c0 .195.155.351.348.351h.61v2.704h-.61a.35.35 0 0 0-.348.35c0 .195.155.351.348.351zm1.525-.7h-1.177v-2.541c0-.143.289-.386.589-.552.3.164.588.407.588.551zm3.153 0h-1.176v-2.541c0-.143.288-.386.588-.552.3.164.588.407.588.551zm3.154 0h-1.177v-2.541c0-.143.288-.386.588-.552.3.164.589.407.589.551zm3.153 0h-1.177v-2.541c0-.143.289-.386.589-.552.3.164.588.407.588.551zm3.154 0h-1.177v-2.541c0-.143.288-.386.588-.552.3.164.589.407.589.551zm3.153 0h-1.177v-2.541c0-.143.289-.386.589-.552.3.164.588.407.588.551zm3.153 0H49.4v-2.541c0-.143.288-.386.588-.552.3.164.588.407.588.551zm1.072 0h-.374v-2.541c0-.713-.954-1.175-1.144-1.262a.35.35 0 0 0-.284 0c-.19.087-1.144.55-1.144 1.261v2.541h-.581v-2.54c0-.713-.954-1.175-1.145-1.262a.35.35 0 0 0-.283 0c-.191.087-1.144.55-1.144 1.261v2.541h-.582v-2.54c0-.713-.953-1.175-1.144-1.262a.35.35 0 0 0-.284 0c-.19.087-1.144.55-1.144 1.261v2.541h-.581v-2.54c0-.713-.954-1.175-1.144-1.262a.35.35 0 0 0-.284 0c-.19.087-1.144.55-1.144 1.261v2.541h-.582v-2.54c0-.713-.953-1.175-1.144-1.262a.35.35 0 0 0-.283 0c-.191.087-1.145.55-1.145 1.261v2.541h-.581v-2.54c0-.713-.953-1.175-1.144-1.262a.35.35 0 0 0-.284 0c-.19.087-1.144.55-1.144 1.261v2.541h-.581v-2.54c0-.713-.954-1.175-1.145-1.262a.35.35 0 0 0-.283 0c-.19.087-1.144.55-1.144 1.261v2.541h-.375v-6.111h22.248v6.111zm7.684 0h-6.986v-2.705h6.986zm-5.56-11.687v-1.08h4.132v5.956h-4.132zm-.35 5.577h5.91v2.704h-6.986v-2.704h1.08zm-25.45-5.227h25.102v4.526H27.97zm-4.83-1.43h4.133v5.956H23.14zm5.56 12.769h-6.985V36.66h6.986zm0-3.405h-6.985v-2.705h6.986zM27.3 20.698v-5.314a.35.35 0 0 0-.349-.35h-3.479a.35.35 0 0 0-.348.35v5.314h-2.556a.35.35 0 0 0-.349.35c0 .194.156.35.349.35h.453v2.978h-.453a.35.35 0 0 0-.349.35c0 .194.156.35.349.35h9.29a.35.35 0 0 0 .349-.35.35.35 0 0 0-.349-.35h-.453v-2.978h.453a.35.35 0 0 0 .349-.35.35.35 0 0 0-.349-.35zm-3.479-4.963h2.781v4.963h-2.78zm4.884 8.641h-6.986v-2.978h6.986z" class="hyderabad_svg__dynamic-shade-fill">
    </path>
    <path fill="#3C3C3C" d="M22.538 33.748a.35.35 0 0 0-.349.35v1.051a.35.35 0 1 0 .698 0V34.1a.35.35 0 0 0-.349-.351M23.872 33.748a.35.35 0 0 0-.349.35v1.051a.35.35 0 1 0 .698 0V34.1a.35.35 0 0 0-.349-.351M25.212 33.748a.35.35 0 0 0-.349.35v1.051a.35.35 0 1 0 .698 0V34.1a.35.35 0 0 0-.349-.351M26.552 33.748a.35.35 0 0 0-.349.35v1.051a.35.35 0 1 0 .698 0V34.1a.35.35 0 0 0-.349-.351M27.54 35.15a.35.35 0 1 0 .697 0v-1.052a.35.35 0 1 0-.698 0zM22.538 22.013a.35.35 0 0 0-.349.35v1.051a.35.35 0 1 0 .698 0v-1.051a.35.35 0 0 0-.349-.35M23.872 22.013a.35.35 0 0 0-.349.35v1.051a.35.35 0 1 0 .698 0v-1.051a.35.35 0 0 0-.349-.35M25.212 22.013a.35.35 0 0 0-.349.35v1.051a.35.35 0 1 0 .698 0v-1.051a.35.35 0 0 0-.349-.35M26.552 22.013a.35.35 0 0 0-.349.35v1.051a.35.35 0 1 0 .698 0v-1.051a.35.35 0 0 0-.349-.35M23.872 11.649a.35.35 0 0 0-.349.35v1.051a.35.35 0 1 0 .698 0V12a.35.35 0 0 0-.349-.351M25.212 11.649a.35.35 0 0 0-.349.35v1.051a.35.35 0 1 0 .698 0V12a.35.35 0 0 0-.349-.351M26.552 11.649a.35.35 0 0 0-.349.35v1.051a.35.35 0 1 0 .698 0V12a.35.35 0 0 0-.349-.351M27.888 23.764a.35.35 0 0 0 .349-.35v-1.051a.35.35 0 1 0-.698 0v1.051c0 .194.156.35.349.35M22.538 38.975a.35.35 0 0 0 .35-.35v-1.051a.35.35 0 1 0-.699 0v1.05c0 .195.156.351.35.351M23.872 38.975a.35.35 0 0 0 .35-.35v-1.051a.35.35 0 1 0-.699 0v1.05c0 .195.156.351.35.351M25.212 38.975a.35.35 0 0 0 .35-.35v-1.051a.35.35 0 1 0-.699 0v1.05c0 .195.156.351.35.351M26.552 38.975a.35.35 0 0 0 .349-.35v-1.051a.35.35 0 1 0-.698 0v1.05c0 .195.156.351.349.351M27.888 38.975a.35.35 0 0 0 .349-.35v-1.051a.35.35 0 1 0-.698 0v1.05c0 .195.156.351.349.351" class="hyderabad_svg__dynamic-shade-fill">
    </path>
    <path fill="#3C3C3C" d="M21.693 13.487a.35.35 0 0 0-.35.35c0 .195.157.351.35.351h7.041a.35.35 0 0 0 .349-.35.35.35 0 0 0-.349-.35h-.498V11.56h.498a.35.35 0 0 0 .349-.35.35.35 0 0 0-.349-.351H26.9V8.63c.57-.241 1.34-.867 1.337-2.063-.004-2.006-2.785-3.031-2.904-3.073l-.016-.005q-.017-.004-.033-.01c-.012 0-.023-.004-.035-.004h-.067q-.017 0-.033.005l-.035.01q-.006-.001-.016.004c-.119.042-2.9 1.065-2.904 3.073-.003 1.196.765 1.822 1.337 2.063v2.23h-1.835a.35.35 0 0 0-.349.35c0 .194.156.35.349.35h.498v1.927h-.5m1.195-6.917c.002-1.322 1.84-2.168 2.325-2.369.486.201 2.324 1.047 2.326 2.369 0 1.083-.858 1.403-1.037 1.46h-2.58a1.47 1.47 0 0 1-1.036-1.46zm3.314 2.16v2.13h-1.977V8.73zm-3.314 2.83h4.65v1.927h-4.65zM25.212 2.541a.35.35 0 0 0 .35-.35V.35a.35.35 0 1 0-.699 0v1.84c0 .194.156.35.35.35M30.92 30.29a.35.35 0 0 0-.349-.35h-1.617a.35.35 0 0 0-.349.35c0 .194.156.35.35.35h1.616a.35.35 0 0 0 .35-.35M31.648 30.64h1.617a.35.35 0 0 0 .349-.35.35.35 0 0 0-.35-.35h-1.616a.35.35 0 0 0-.35.35c0 .194.157.35.35.35M34.337 30.64h1.617a.35.35 0 0 0 .349-.35.35.35 0 0 0-.349-.35h-1.617a.35.35 0 0 0-.349.35c0 .194.156.35.35.35M37.028 30.64h1.617a.35.35 0 0 0 .35-.35.35.35 0 0 0-.35-.35h-1.617a.35.35 0 0 0-.349.35c0 .194.156.35.35.35M39.718 30.64h1.617a.35.35 0 0 0 .349-.35.35.35 0 0 0-.35-.35h-1.616a.35.35 0 0 0-.349.35c0 .194.156.35.35.35M42.41 30.64h1.616a.35.35 0 0 0 .35-.35.35.35 0 0 0-.35-.35H42.41a.35.35 0 0 0-.349.35c0 .194.156.35.35.35M45.099 30.64h1.617a.35.35 0 0 0 .349-.35.35.35 0 0 0-.35-.35H45.1a.35.35 0 0 0-.349.35c0 .194.156.35.349.35M47.792 30.64h1.617a.35.35 0 0 0 .35-.35.35.35 0 0 0-.35-.35h-1.617a.35.35 0 0 0-.349.35c0 .194.156.35.35.35M50.484 30.64H52.1a.35.35 0 0 0 .349-.35.35.35 0 0 0-.35-.35h-1.616a.35.35 0 0 0-.35.35c0 .194.157.35.35.35M58.433 40.88H22.62a.35.35 0 0 0-.349.351V58.65c0 .194.156.35.35.35h35.812a.35.35 0 0 0 .349-.35V41.231a.35.35 0 0 0-.349-.35M24.325 58.3h-1.356V41.581h1.356zm2.325 0h-1.627V41.581h1.627zm2.054 0h-1.356V41.581h1.356zm3.179 0H29.4V41.581h2.482zm14.98 0H34.19v-8.36c0-2.3 2.09-3.07 3.934-3.75.977-.36 1.914-.706 2.403-1.273.488.567 1.425.913 2.402 1.273 1.844.68 3.935 1.45 3.935 3.75zm1.61 0h-.912v-8.36c0-2.79-2.434-3.687-4.392-4.41-1.23-.452-2.293-.845-2.293-1.536a.349.349 0 1 0-.698 0c0 .691-1.063 1.084-2.293 1.537-1.958.721-4.393 1.618-4.393 4.41v8.358h-.912V41.582h15.89v16.717zm3.179 0H49.17V41.581h2.48zm2.053 0H52.35V41.581h1.355zm2.326 0h-1.628V41.581h1.628zm2.053 0h-1.356V41.581h1.356z" class="hyderabad_svg__dynamic-shade-fill">
    </path>
    <path fill="#3C3C3C" d="M49.902 45.22h1.019a.35.35 0 0 0 .349-.35q.001-.029-.005-.058l-.005-1.485a.854.854 0 0 0-.851-.855.853.853 0 0 0-.852.852l-.004 1.544a.35.35 0 0 0 .349.35zm.353-1.893a.154.154 0 1 1 .307 0l.005 1.193h-.314l.005-1.194zM49.902 49.114h1.019a.35.35 0 0 0 .349-.35q.001-.03-.005-.06l-.005-1.485a.854.854 0 0 0-.851-.854.853.853 0 0 0-.852.852l-.004 1.544a.35.35 0 0 0 .349.35zm.353-1.895a.154.154 0 1 1 .307 0l.005 1.194h-.314l.005-1.194zM49.902 53.007h1.019a.35.35 0 0 0 .349-.35q.001-.03-.005-.059l-.005-1.485a.854.854 0 0 0-.851-.855.853.853 0 0 0-.852.852l-.004 1.544a.35.35 0 0 0 .349.35zm.353-1.894a.154.154 0 1 1 .307 0l.005 1.193h-.314l.005-1.193zM49.902 56.897h1.019a.35.35 0 0 0 .349-.35q.001-.03-.005-.058l-.005-1.486a.854.854 0 0 0-.851-.855.853.853 0 0 0-.852.853l-.004 1.544a.35.35 0 0 0 .349.35zm.353-1.894a.154.154 0 1 1 .307 0l.005 1.194h-.314l.005-1.194zM51.195 24.378a.35.35 0 0 0-.35.35c0 .194.157.35.35.35h9.29a.35.35 0 0 0 .349-.35.35.35 0 0 0-.35-.35h-.453V21.4h.454a.35.35 0 0 0 .349-.35.35.35 0 0 0-.35-.35H57.93v-5.313a.35.35 0 0 0-.349-.35h-3.479a.35.35 0 0 0-.348.35V20.7h-2.559a.35.35 0 0 0-.348.35c0 .194.156.35.349.35h.453v2.978zm3.255-8.641h2.781V20.7h-2.78zM52.348 21.4h6.986v2.978h-6.986zM58.517 35.5a.35.35 0 0 0 .349-.35v-1.052a.35.35 0 1 0-.698 0v1.051c0 .194.156.35.349.35M57.177 35.5a.35.35 0 0 0 .349-.35v-1.052a.35.35 0 1 0-.698 0v1.051c0 .194.156.35.35.35M55.841 35.5a.35.35 0 0 0 .35-.35v-1.052a.35.35 0 1 0-.699 0v1.051c0 .194.156.35.35.35M54.505 35.5a.35.35 0 0 0 .35-.35v-1.052a.35.35 0 1 0-.699 0v1.051c0 .194.156.35.35.35M53.167 35.5a.35.35 0 0 0 .35-.35v-1.052a.35.35 0 1 0-.699 0v1.051c0 .194.156.35.35.35" class="hyderabad_svg__dynamic-shade-fill">
    </path>
    <path fill="#3C3C3C" d="M58.517 22.013a.35.35 0 0 0-.349.35v1.051a.35.35 0 1 0 .698 0v-1.051a.35.35 0 0 0-.35-.35M57.177 22.013a.35.35 0 0 0-.349.35v1.051a.35.35 0 1 0 .698 0v-1.051a.35.35 0 0 0-.349-.35M55.841 22.013a.35.35 0 0 0-.349.35v1.051a.35.35 0 1 0 .698 0v-1.051a.35.35 0 0 0-.349-.35M54.505 22.013a.35.35 0 0 0-.349.35v1.051a.35.35 0 1 0 .698 0v-1.051a.35.35 0 0 0-.349-.35M56.828 12v1.05a.35.35 0 1 0 .698 0V12a.35.35 0 1 0-.698 0M55.841 11.649a.35.35 0 0 0-.349.35v1.051a.35.35 0 1 0 .698 0V12a.35.35 0 0 0-.349-.351M54.505 11.649a.35.35 0 0 0-.349.35v1.051a.35.35 0 1 0 .698 0V12a.35.35 0 0 0-.349-.351M53.167 22.013a.35.35 0 0 0-.349.35v1.051a.35.35 0 1 0 .698 0v-1.051a.35.35 0 0 0-.349-.35M58.517 38.975a.35.35 0 0 0 .349-.35v-1.051a.35.35 0 1 0-.698 0v1.05c0 .195.156.351.349.351M57.177 38.975a.35.35 0 0 0 .349-.35v-1.051a.35.35 0 1 0-.698 0v1.05c0 .195.156.351.35.351M55.841 38.975a.35.35 0 0 0 .35-.35v-1.051a.35.35 0 1 0-.699 0v1.05c0 .195.156.351.35.351M54.505 38.975a.35.35 0 0 0 .35-.35v-1.051a.35.35 0 1 0-.699 0v1.05c0 .195.156.351.35.351M53.167 38.975a.35.35 0 0 0 .35-.35v-1.051a.35.35 0 1 0-.699 0v1.05c0 .195.156.351.35.351" class="hyderabad_svg__dynamic-shade-fill">
    </path>
    <path fill="#3C3C3C" d="M54.154 8.63v2.23H52.32a.35.35 0 0 0-.348.35c0 .194.155.35.348.35h.498v1.927h-.498a.35.35 0 0 0-.348.35c0 .195.155.351.348.351h7.042a.35.35 0 0 0 .349-.35.35.35 0 0 0-.349-.35h-.498V11.56h.498a.35.35 0 0 0 .349-.35.35.35 0 0 0-.349-.351h-1.835V8.63c.57-.241 1.34-.867 1.337-2.063-.004-2.006-2.786-3.031-2.904-3.073l-.017-.005-.034-.01c-.012 0-.021-.004-.033-.004h-.067l-.03.005q-.019.002-.038.01-.006-.001-.016.004c-.119.042-2.9 1.065-2.905 3.073-.002 1.196.768 1.822 1.338 2.063zm4.012 2.93v1.927h-4.651v-1.926zm-3.314-.7V8.73h1.977v2.13zm.988-6.659c.486.201 2.323 1.047 2.326 2.369 0 1.083-.858 1.403-1.037 1.46h-2.577a1.47 1.47 0 0 1-1.037-1.46c.002-1.322 1.84-2.168 2.325-2.369M55.841 2.541a.35.35 0 0 0 .35-.35V.35a.35.35 0 1 0-.699 0v1.84c0 .194.156.35.35.35M18.464 48.955c-.628 0-1.181.313-1.52.789a1.87 1.87 0 0 0-1.522-.79c-1.03 0-1.87.844-1.87 1.878 0 .194.157.35.35.35h2.693v7.39a.349.349 0 1 0 .697 0v-7.39h2.693a.35.35 0 0 0 .349-.35c0-1.034-.84-1.877-1.87-1.877m-4.16 1.527a1.175 1.175 0 0 1 1.118-.827c.524 0 .97.348 1.119.827h-2.24zm3.042 0a1.17 1.17 0 0 1 1.118-.827c.526 0 .97.348 1.119.827z" class="hyderabad_svg__dynamic-shade-fill">
    </path>
    <path fill="#F5F5F5" d="M14.303 50.482a1.18 1.18 0 0 1 1.12-.827c.522 0 .97.348 1.118.827h-2.24zM17.348 50.482a1.17 1.17 0 0 1 1.119-.827c.525 0 .97.348 1.119.827zM64.237 56.117h-2.642c-.74 0-1.34-.602-1.34-1.345 0-.45.224-.869.598-1.118a.35.35 0 0 0 .152-.342 1.65 1.65 0 0 1 1.626-1.885 1.65 1.65 0 0 1 1.476 2.374.35.35 0 0 0 .263.5.915.915 0 0 1-.133 1.82z" class="hyderabad_svg__dynamic-shade-fill">
    </path>
    <path fill="url(#hyderabad_svg__a)" d="M22.968 58.299H.041v.7h22.927z">
    </path>
    <path fill="url(#hyderabad_svg__b)" d="M81.01 58.299H58.081v.7h22.927z">
    </path>
    <defs>
        <linearGradient id="hyderabad_svg__a" x1="0.041" x2="22.968" y1="58.649" y2="58.649" gradientUnits="userSpaceOnUse">
            <stop stop-color="#fff">
            </stop>
            <stop class="hyderabad_svg__dynamic-shade-stop-color" offset="1" stop-color="#3C3C3C">
            </stop>
        </linearGradient>
        <linearGradient id="hyderabad_svg__b" x1="58.082" x2="81.011" y1="58.649" y2="58.649" gradientUnits="userSpaceOnUse">
            <stop class="hyderabad_svg__dynamic-shade-stop-color" stop-color="#3C3C3C">
            </stop>
            <stop offset="1" stop-color="#fff">
            </stop>
        </linearGradient>
    </defs>
</svg>